<svg width="102" height="26" viewBox="0 0 102 26" fill="none" xmlns="http://www.w3.org/2000/svg">
<path d="M0.075 12.125C0.075 10.7083 0.358333 9.475 0.925 8.425C1.49167 7.35833 2.275 6.53333 3.275 5.95C4.29167 5.36667 5.45 5.075 6.75 5.075C8.43333 5.075 9.81667 5.48333 10.9 6.3C12 7.11667 12.725 8.25 13.075 9.7H10.625C10.3917 8.86667 9.93333 8.20833 9.25 7.725C8.58333 7.24167 7.75 7 6.75 7C5.45 7 4.4 7.45 3.6 8.35C2.8 9.23333 2.4 10.4917 2.4 12.125C2.4 13.775 2.8 15.05 3.6 15.95C4.4 16.85 5.45 17.3 6.75 17.3C7.75 17.3 8.58333 17.0667 9.25 16.6C9.91667 16.1333 10.375 15.4667 10.625 14.6H13.075C12.7083 16 11.975 17.125 10.875 17.975C9.775 18.8083 8.4 19.225 6.75 19.225C5.45 19.225 4.29167 18.9333 3.275 18.35C2.275 17.7667 1.49167 16.9417 0.925 15.875C0.358333 14.8083 0.075 13.5583 0.075 12.125ZM22.1605 5.05C23.1939 5.05 24.1272 5.275 24.9605 5.725C25.7939 6.15833 26.4439 6.81667 26.9105 7.7C27.3939 8.58333 27.6355 9.65833 27.6355 10.925V19H25.3855V11.25C25.3855 9.88333 25.0439 8.84167 24.3605 8.125C23.6772 7.39167 22.7439 7.025 21.5605 7.025C20.3605 7.025 19.4022 7.4 18.6855 8.15C17.9855 8.9 17.6355 9.99167 17.6355 11.425V19H15.3605V0.5H17.6355V7.25C18.0855 6.55 18.7022 6.00833 19.4855 5.625C20.2855 5.24167 21.1772 5.05 22.1605 5.05ZM29.7518 12.1C29.7518 10.7 30.0351 9.475 30.6018 8.425C31.1684 7.35833 31.9434 6.53333 32.9268 5.95C33.9268 5.36667 35.0351 5.075 36.2518 5.075C37.4518 5.075 38.4934 5.33333 39.3768 5.85C40.2601 6.36667 40.9184 7.01667 41.3518 7.8V5.3H43.6518V19H41.3518V16.45C40.9018 17.25 40.2268 17.9167 39.3268 18.45C38.4434 18.9667 37.4101 19.225 36.2268 19.225C35.0101 19.225 33.9101 18.925 32.9268 18.325C31.9434 17.725 31.1684 16.8833 30.6018 15.8C30.0351 14.7167 29.7518 13.4833 29.7518 12.1ZM41.3518 12.125C41.3518 11.0917 41.1434 10.1917 40.7268 9.425C40.3101 8.65833 39.7434 8.075 39.0268 7.675C38.3268 7.25833 37.5518 7.05 36.7018 7.05C35.8518 7.05 35.0768 7.25 34.3768 7.65C33.6768 8.05 33.1184 8.63333 32.7018 9.4C32.2851 10.1667 32.0768 11.0667 32.0768 12.1C32.0768 13.15 32.2851 14.0667 32.7018 14.85C33.1184 15.6167 33.6768 16.2083 34.3768 16.625C35.0768 17.025 35.8518 17.225 36.7018 17.225C37.5518 17.225 38.3268 17.025 39.0268 16.625C39.7434 16.2083 40.3101 15.6167 40.7268 14.85C41.1434 14.0667 41.3518 13.1583 41.3518 12.125ZM49.5213 7.175V15.25C49.5213 15.9167 49.663 16.3917 49.9463 16.675C50.2296 16.9417 50.7213 17.075 51.4213 17.075H53.0963V19H51.0463C49.7796 19 48.8296 18.7083 48.1963 18.125C47.563 17.5417 47.2463 16.5833 47.2463 15.25V7.175H45.4713V5.3H47.2463V1.85H49.5213V5.3H53.0963V7.175H49.5213ZM54.0027 12.025C54.0027 10.625 54.2777 9.38333 54.8277 8.3C55.3944 7.21667 56.1527 6.38333 57.1027 5.8C58.0694 5.21667 59.1444 4.925 60.3277 4.925C61.3611 4.925 62.2611 5.13333 63.0277 5.55C63.8111 5.96667 64.4361 6.49167 64.9027 7.125V5.15H68.4277V19H64.9027V16.975C64.4527 17.625 63.8277 18.1667 63.0277 18.6C62.2444 19.0167 61.3361 19.225 60.3027 19.225C59.1361 19.225 58.0694 18.925 57.1027 18.325C56.1527 17.725 55.3944 16.8833 54.8277 15.8C54.2777 14.7 54.0027 13.4417 54.0027 12.025ZM64.9027 12.075C64.9027 11.225 64.7361 10.5 64.4027 9.9C64.0694 9.28333 63.6194 8.81667 63.0527 8.5C62.4861 8.16667 61.8777 8 61.2277 8C60.5777 8 59.9777 8.15833 59.4277 8.475C58.8777 8.79167 58.4277 9.25833 58.0777 9.875C57.7444 10.475 57.5777 11.1917 57.5777 12.025C57.5777 12.8583 57.7444 13.5917 58.0777 14.225C58.4277 14.8417 58.8777 15.3167 59.4277 15.65C59.9944 15.9833 60.5944 16.15 61.2277 16.15C61.8777 16.15 62.4861 15.9917 63.0527 15.675C63.6194 15.3417 64.0694 14.875 64.4027 14.275C64.7361 13.6583 64.9027 12.925 64.9027 12.075ZM74.5961 7.15C75.0461 6.51667 75.6628 5.99167 76.4461 5.575C77.2461 5.14167 78.1544 4.925 79.1711 4.925C80.3544 4.925 81.4211 5.21667 82.3711 5.8C83.3378 6.38333 84.0961 7.21667 84.6461 8.3C85.2128 9.36667 85.4961 10.6083 85.4961 12.025C85.4961 13.4417 85.2128 14.7 84.6461 15.8C84.0961 16.8833 83.3378 17.725 82.3711 18.325C81.4211 18.925 80.3544 19.225 79.1711 19.225C78.1544 19.225 77.2544 19.0167 76.4711 18.6C75.7044 18.1833 75.0794 17.6583 74.5961 17.025V25.6H71.0961V5.15H74.5961V7.15ZM81.9211 12.025C81.9211 11.1917 81.7461 10.475 81.3961 9.875C81.0628 9.25833 80.6128 8.79167 80.0461 8.475C79.4961 8.15833 78.8961 8 78.2461 8C77.6128 8 77.0128 8.16667 76.4461 8.5C75.8961 8.81667 75.4461 9.28333 75.0961 9.9C74.7628 10.5167 74.5961 11.2417 74.5961 12.075C74.5961 12.9083 74.7628 13.6333 75.0961 14.25C75.4461 14.8667 75.8961 15.3417 76.4461 15.675C77.0128 15.9917 77.6128 16.15 78.2461 16.15C78.8961 16.15 79.4961 15.9833 80.0461 15.65C80.6128 15.3167 81.0628 14.8417 81.3961 14.225C81.7461 13.6083 81.9211 12.875 81.9211 12.025ZM90.7895 7.15C91.2395 6.51667 91.8561 5.99167 92.6395 5.575C93.4395 5.14167 94.3478 4.925 95.3645 4.925C96.5478 4.925 97.6145 5.21667 98.5645 5.8C99.5311 6.38333 100.289 7.21667 100.839 8.3C101.406 9.36667 101.689 10.6083 101.689 12.025C101.689 13.4417 101.406 14.7 100.839 15.8C100.289 16.8833 99.5311 17.725 98.5645 18.325C97.6145 18.925 96.5478 19.225 95.3645 19.225C94.3478 19.225 93.4478 19.0167 92.6645 18.6C91.8978 18.1833 91.2728 17.6583 90.7895 17.025V25.6H87.2895V5.15H90.7895V7.15ZM98.1145 12.025C98.1145 11.1917 97.9395 10.475 97.5895 9.875C97.2561 9.25833 96.8061 8.79167 96.2395 8.475C95.6895 8.15833 95.0895 8 94.4395 8C93.8061 8 93.2061 8.16667 92.6395 8.5C92.0895 8.81667 91.6395 9.28333 91.2895 9.9C90.9561 10.5167 90.7895 11.2417 90.7895 12.075C90.7895 12.9083 90.9561 13.6333 91.2895 14.25C91.6395 14.8667 92.0895 15.3417 92.6395 15.675C93.2061 15.9917 93.8061 16.15 94.4395 16.15C95.0895 16.15 95.6895 15.9833 96.2395 15.65C96.8061 15.3167 97.2561 14.8417 97.5895 14.225C97.9395 13.6083 98.1145 12.875 98.1145 12.025Z" fill="black"/>
</svg>
