<svg width="217" height="37" viewBox="0 0 217 37" fill="none" xmlns="http://www.w3.org/2000/svg">
<path d="M19 0L23.2658 12.7832H37.0701L25.9022 20.6836L30.1679 33.4668L19 25.5664L7.83208 33.4668L12.0978 20.6836L0.929926 12.7832H14.7342L19 0Z" fill="#E7A400"/>
<path d="M64 0L68.2658 12.7832H82.0701L70.9022 20.6836L75.1679 33.4668L64 25.5664L52.8321 33.4668L57.0978 20.6836L45.9299 12.7832H59.7342L64 0Z" fill="#E7A400"/>
<path d="M109 0L113.266 12.7832H127.07L115.902 20.6836L120.168 33.4668L109 25.5664L97.8321 33.4668L102.098 20.6836L90.9299 12.7832H104.734L109 0Z" fill="#E7A400"/>
<path d="M153 0L157.266 12.7832H171.07L159.902 20.6836L164.168 33.4668L153 25.5664L141.832 33.4668L146.098 20.6836L134.93 12.7832H148.734L153 0Z" fill="#E7A400"/>
<path d="M198 0L202.266 12.7832H216.07L204.902 20.6836L209.168 33.4668L198 25.5664L186.832 33.4668L191.098 20.6836L179.93 12.7832H193.734L198 0Z" fill="#E7A400"/>
</svg>
