<svg width="21" height="21" viewBox="0 0 21 21" fill="none" xmlns="http://www.w3.org/2000/svg">
<path fill-rule="evenodd" clip-rule="evenodd" d="M10.5503 5.52969e-06C5.37724 -0.00525609 0.965196 3.74494 0.136921 8.85126C-0.691352 13.9576 2.30908 18.9102 7.21858 20.5404C7.74907 20.6374 7.93668 20.3075 7.93668 20.0292C7.93668 19.7511 7.93668 19.117 7.93668 18.2372C4.9931 18.8777 4.37205 16.8204 4.37205 16.8204C4.17677 16.1828 3.7619 15.635 3.20108 15.2743C2.25008 14.6273 3.27872 14.6273 3.27872 14.6273C3.9542 14.7227 4.54824 15.1235 4.88959 15.7142C5.1787 16.2384 5.66468 16.6258 6.24011 16.791C6.81554 16.956 7.43303 16.8852 7.95609 16.594C7.9967 16.0618 8.22613 15.5616 8.60303 15.1837C6.26111 14.9185 3.80274 14.0127 3.80274 10.0082C3.78666 8.96206 4.17349 7.94981 4.88312 7.18103C4.56707 6.27146 4.604 5.27637 4.98664 4.39273C4.98664 4.39273 5.87294 4.10807 7.88493 5.47311C9.61265 4.99875 11.4362 4.99875 13.164 5.47311C15.176 4.10807 16.0558 4.39273 16.0558 4.39273C16.4438 5.26701 16.4899 6.25497 16.1851 7.16162C16.8948 7.9304 17.2816 8.94263 17.2656 9.98873C17.2656 14.0386 14.8008 14.9249 12.4523 15.1643C12.9618 15.6764 13.2238 16.3846 13.1704 17.1051C13.1704 18.5155 13.1704 19.654 13.1704 19.9969C13.1704 20.3397 13.358 20.6051 13.895 20.5015C18.7462 18.8292 21.6878 13.9058 20.8616 8.84136C20.0353 3.77698 15.6815 0.0437958 10.5503 5.52969e-06Z" fill="#758CA3"/>
</svg>
