<svg width="21" height="21" viewBox="0 0 21 21" fill="none" xmlns="http://www.w3.org/2000/svg">
<path d="M17.8938 17.8937H14.7822V13.02C14.7822 11.858 14.7613 10.3617 13.1635 10.3617C11.543 10.3617 11.2945 11.6287 11.2945 12.9342V17.8937H8.183V7.8715H11.1703V9.24174H11.2122C11.8212 8.20225 12.9552 7.57925 14.1592 7.623C17.3127 7.623 17.8955 9.69674 17.8955 12.397L17.8938 17.892V17.8937ZM4.6725 6.50125C4.19453 6.49896 3.73676 6.30818 3.39862 5.97037C3.06048 5.63255 2.86926 5.17497 2.8665 4.69701C2.8665 3.70651 3.682 2.89102 4.6725 2.89102C5.663 2.89102 6.47675 3.70651 6.4785 4.69701C6.4785 5.6875 5.663 6.50125 4.6725 6.50125ZM6.22825 17.8937H3.11325V7.8715H6.22825V17.8937ZM19.4425 2.60106e-05H1.54875C1.14301 -0.00233058 0.75274 0.15553 0.46274 0.439303C0.172741 0.723076 0.00644816 1.10983 0 1.51552V19.4845C0.00644816 19.8901 0.172741 20.2769 0.46274 20.5607C0.75274 20.8444 1.14301 21.0023 1.54875 20.9999H19.4443C19.8509 21.0032 20.2425 20.8459 20.5338 20.5621C20.8251 20.2784 20.9926 19.8911 21 19.4845V1.51377C20.9926 1.10747 20.825 0.720548 20.5336 0.43733C20.2421 0.154111 19.8506 -0.00244693 19.4443 0.00177588L19.4425 2.60106e-05Z" fill="#0A66C2"/>
</svg>
