<svg width="23" height="18" viewBox="0 0 23 18" fill="none" xmlns="http://www.w3.org/2000/svg">
<path d="M12.521 8.98899C12.5212 8.98883 12.5215 8.98866 12.5217 8.9885L21.4617 1.9706C21.4849 2.03593 21.4979 2.10465 21.5 2.1743V16.1679C21.5 16.3447 21.4298 16.5142 21.3047 16.6393C21.1797 16.7643 21.0101 16.8345 20.8333 16.8345H2.16667C1.98986 16.8345 1.82029 16.7643 1.69526 16.6393C1.57024 16.5142 1.5 16.3447 1.5 16.1679V2.16975C1.50056 2.10576 1.51033 2.04237 1.52886 1.98148L10.455 8.9885C10.4552 8.98866 10.4554 8.98883 10.4556 8.98899C10.7498 9.22119 11.1136 9.3475 11.4883 9.3475C11.8631 9.3475 12.2269 9.22119 12.521 8.98899Z" fill="#2CA9BC" stroke="black"/>
<path d="M2.16667 1C1.85725 1 1.5605 1.12292 1.34171 1.34171C1.12292 1.5605 1 1.85725 1 2.16667V16.1667C1 16.4761 1.12292 16.7728 1.34171 16.9916C1.5605 17.2104 1.85725 17.3333 2.16667 17.3333H20.8333C21.1428 17.3333 21.4395 17.2104 21.6583 16.9916C21.8771 16.7728 22 16.4761 22 16.1667V2.16667C22 1.85725 21.8771 1.5605 21.6583 1.34171C21.4395 1.12292 21.1428 1 20.8333 1M2.16667 1H20.8333M2.16667 1C1.90351 1.00153 1.6486 1.09198 1.44333 1.25667L10.7767 8.595C10.9826 8.75776 11.2375 8.8463 11.5 8.8463C11.7625 8.8463 12.0174 8.75776 12.2233 8.595L21.5567 1.25667C21.3514 1.09198 21.0965 1.00153 20.8333 1" stroke="black" stroke-linecap="round" stroke-linejoin="round"/>
</svg>
