<svg width="20" height="20" viewBox="0 0 20 20" fill="none" xmlns="http://www.w3.org/2000/svg">
<path d="M20 20H0V0H20V20ZM12.5117 7.495V13.6C12.5117 13.765 12.5117 13.795 12.4058 13.9017L11.3208 14.955V15.18H16.5875V14.955L15.54 13.9267C15.4642 13.8683 15.4167 13.7783 15.4167 13.6767C15.4167 13.6583 15.4183 13.6408 15.4208 13.6233V13.625V6.06667C15.4183 6.05083 15.4167 6.03333 15.4167 6.015C15.4167 5.91417 15.465 5.82417 15.54 5.76667L15.5408 5.76583L16.6125 4.7375V4.5125H12.8992L10.2525 11.1158L7.245 4.5125H3.34917V4.73833L4.60083 6.24917C4.70667 6.345 4.77333 6.48333 4.77333 6.6375C4.77333 6.65583 4.7725 6.67333 4.77083 6.69083V6.68833V12.6267C4.77667 12.6608 4.78 12.7 4.78 12.74C4.78 12.925 4.70667 13.0925 4.5875 13.2158L3.17917 14.9275V15.1525H7.17917V14.9275L5.77 13.2158C5.64583 13.0875 5.56917 12.9133 5.56917 12.72C5.56917 12.6867 5.57167 12.6542 5.57583 12.6225V12.6258V7.4925L9.08833 15.155H9.49667L12.5117 7.495Z" fill="white"/>
</svg>
